<mxfile host="app.diagrams.net" agent="Mozilla/5.0 (Macintosh; Intel Mac OS X 10_15_7) AppleWebKit/537.36 (KHTML, like Gecko) Chrome/128.0.0.0 Safari/537.36" version="24.8.1">
  <diagram name="Page-1" id="9xw382ZIhA2r2arBTCRh">
    <mxGraphModel dx="1283" dy="734" grid="1" gridSize="10" guides="1" tooltips="1" connect="1" arrows="1" fold="1" page="1" pageScale="1" pageWidth="827" pageHeight="1169" math="0" shadow="0">
      <root>
        <mxCell id="0" />
        <mxCell id="1" parent="0" />
        <mxCell id="uYKmUOFOkHPT1V7PyWkY-9" value="" style="rounded=1;whiteSpace=wrap;html=1;" vertex="1" parent="1">
          <mxGeometry x="230" y="480" width="220" height="440" as="geometry" />
        </mxCell>
        <mxCell id="uYKmUOFOkHPT1V7PyWkY-11" value="前端参数逻辑检查" style="rounded=1;whiteSpace=wrap;html=1;fillColor=#dae8fc;strokeColor=#6c8ebf;" vertex="1" parent="1">
          <mxGeometry x="250" y="500" width="180" height="30" as="geometry" />
        </mxCell>
        <mxCell id="uYKmUOFOkHPT1V7PyWkY-12" value="DB存储中查询获取系统中任务" style="rounded=1;whiteSpace=wrap;html=1;fillColor=#dae8fc;strokeColor=#6c8ebf;" vertex="1" parent="1">
          <mxGeometry x="250" y="540" width="180" height="30" as="geometry" />
        </mxCell>
        <mxCell id="uYKmUOFOkHPT1V7PyWkY-13" value="通过 API 获取配置信息" style="rounded=1;whiteSpace=wrap;html=1;fillColor=#dae8fc;strokeColor=#6c8ebf;" vertex="1" parent="1">
          <mxGeometry x="250" y="836" width="180" height="30" as="geometry" />
        </mxCell>
        <mxCell id="uYKmUOFOkHPT1V7PyWkY-14" value="构建用于更新的任务对象" style="rounded=1;whiteSpace=wrap;html=1;fillColor=#dae8fc;strokeColor=#6c8ebf;" vertex="1" parent="1">
          <mxGeometry x="250" y="760" width="180" height="30" as="geometry" />
        </mxCell>
        <mxCell id="uYKmUOFOkHPT1V7PyWkY-15" value="检查 任务派发人员 是否合法" style="rounded=1;whiteSpace=wrap;html=1;fillColor=#f8cecc;strokeColor=#b85450;" vertex="1" parent="1">
          <mxGeometry x="250" y="617" width="180" height="30" as="geometry" />
        </mxCell>
        <mxCell id="uYKmUOFOkHPT1V7PyWkY-16" value="检查 任务做单人员 是否合法" style="rounded=1;whiteSpace=wrap;html=1;fillColor=#f8cecc;strokeColor=#b85450;" vertex="1" parent="1">
          <mxGeometry x="250" y="725" width="180" height="30" as="geometry" />
        </mxCell>
        <mxCell id="uYKmUOFOkHPT1V7PyWkY-17" value="系统数据 与 传入数据&amp;nbsp; 选择逻辑" style="rounded=1;whiteSpace=wrap;html=1;fillColor=#f8cecc;strokeColor=#b85450;" vertex="1" parent="1">
          <mxGeometry x="250" y="797" width="180" height="30" as="geometry" />
        </mxCell>
        <mxCell id="uYKmUOFOkHPT1V7PyWkY-18" value="......." style="text;html=1;align=center;verticalAlign=middle;whiteSpace=wrap;rounded=0;" vertex="1" parent="1">
          <mxGeometry x="310" y="881" width="60" height="30" as="geometry" />
        </mxCell>
        <mxCell id="uYKmUOFOkHPT1V7PyWkY-19" value="任务分派逻辑现状" style="text;strokeColor=none;fillColor=none;html=1;fontSize=24;fontStyle=1;verticalAlign=middle;align=center;" vertex="1" parent="1">
          <mxGeometry x="290" y="430" width="100" height="40" as="geometry" />
        </mxCell>
        <mxCell id="uYKmUOFOkHPT1V7PyWkY-21" value="面向过程开发的特点：&lt;div&gt;&lt;br&gt;&lt;div&gt;1. 无结构，无分层&lt;/div&gt;&lt;div&gt;2. 难以阅读&lt;/div&gt;&lt;div&gt;3. 不易复用&lt;/div&gt;&lt;div&gt;4. 业务需求变化时，改造难度大&lt;/div&gt;&lt;div&gt;5. 执行效率低，性能差&lt;/div&gt;&lt;/div&gt;" style="text;html=1;align=left;verticalAlign=middle;whiteSpace=wrap;rounded=0;" vertex="1" parent="1">
          <mxGeometry x="70" y="539.5" width="140" height="30" as="geometry" />
        </mxCell>
        <mxCell id="uYKmUOFOkHPT1V7PyWkY-23" value="" style="rounded=1;whiteSpace=wrap;html=1;" vertex="1" parent="1">
          <mxGeometry x="578" y="480" width="250" height="490" as="geometry" />
        </mxCell>
        <mxCell id="uYKmUOFOkHPT1V7PyWkY-24" value="任务分派逻辑改造目标" style="text;strokeColor=none;fillColor=none;html=1;fontSize=24;fontStyle=1;verticalAlign=middle;align=center;" vertex="1" parent="1">
          <mxGeometry x="680" y="430" width="100" height="40" as="geometry" />
        </mxCell>
        <mxCell id="uYKmUOFOkHPT1V7PyWkY-25" value="" style="rounded=1;whiteSpace=wrap;html=1;" vertex="1" parent="1">
          <mxGeometry x="760" y="530" width="110" height="243" as="geometry" />
        </mxCell>
        <mxCell id="uYKmUOFOkHPT1V7PyWkY-26" value="&lt;font style=&quot;font-size: 18px;&quot;&gt;上下文&lt;/font&gt;" style="text;strokeColor=none;fillColor=none;html=1;fontSize=24;fontStyle=1;verticalAlign=middle;align=center;" vertex="1" parent="1">
          <mxGeometry x="760" y="520" width="100" height="40" as="geometry" />
        </mxCell>
        <mxCell id="uYKmUOFOkHPT1V7PyWkY-27" value="输入模型" style="rounded=1;whiteSpace=wrap;html=1;fillColor=#dae8fc;strokeColor=#6c8ebf;" vertex="1" parent="1">
          <mxGeometry x="770" y="577" width="80" height="40" as="geometry" />
        </mxCell>
        <mxCell id="uYKmUOFOkHPT1V7PyWkY-28" value="控制模型" style="rounded=1;whiteSpace=wrap;html=1;fillColor=#f8cecc;strokeColor=#b85450;" vertex="1" parent="1">
          <mxGeometry x="770" y="623" width="80" height="40" as="geometry" />
        </mxCell>
        <mxCell id="uYKmUOFOkHPT1V7PyWkY-29" value="领域模型（读）" style="rounded=1;whiteSpace=wrap;html=1;fillColor=#dae8fc;strokeColor=#6c8ebf;" vertex="1" parent="1">
          <mxGeometry x="770" y="670" width="80" height="40" as="geometry" />
        </mxCell>
        <mxCell id="uYKmUOFOkHPT1V7PyWkY-30" value="领域模型（写）" style="rounded=1;whiteSpace=wrap;html=1;fillColor=#d5e8d4;strokeColor=#82b366;" vertex="1" parent="1">
          <mxGeometry x="770" y="720" width="80" height="40" as="geometry" />
        </mxCell>
        <mxCell id="uYKmUOFOkHPT1V7PyWkY-31" value="输入参数检查" style="rounded=1;whiteSpace=wrap;html=1;fillColor=#dae8fc;strokeColor=#6c8ebf;" vertex="1" parent="1">
          <mxGeometry x="589" y="509.5" width="160" height="60" as="geometry" />
        </mxCell>
        <mxCell id="uYKmUOFOkHPT1V7PyWkY-32" value="防腐层，&lt;div&gt;上下文缓存&lt;br&gt;&lt;div&gt;（数据获取）&lt;/div&gt;&lt;/div&gt;" style="rounded=1;whiteSpace=wrap;html=1;fillColor=#fff2cc;strokeColor=#d6b656;" vertex="1" parent="1">
          <mxGeometry x="930" y="500" width="70" height="130" as="geometry" />
        </mxCell>
        <mxCell id="uYKmUOFOkHPT1V7PyWkY-35" style="edgeStyle=orthogonalEdgeStyle;rounded=0;orthogonalLoop=1;jettySize=auto;html=1;exitX=0.16;exitY=0.55;exitDx=0;exitDy=0;exitPerimeter=0;entryX=1;entryY=0.5;entryDx=0;entryDy=0;curved=1;" edge="1" parent="1" source="uYKmUOFOkHPT1V7PyWkY-34" target="uYKmUOFOkHPT1V7PyWkY-32">
          <mxGeometry relative="1" as="geometry" />
        </mxCell>
        <mxCell id="uYKmUOFOkHPT1V7PyWkY-34" value="&amp;nbsp;API 服务" style="ellipse;shape=cloud;whiteSpace=wrap;html=1;" vertex="1" parent="1">
          <mxGeometry x="1060" y="655" width="120" height="80" as="geometry" />
        </mxCell>
        <mxCell id="uYKmUOFOkHPT1V7PyWkY-40" value="领域逻辑处理节点 1&lt;div&gt;（数据获取，及数据写出）&lt;/div&gt;" style="rounded=1;whiteSpace=wrap;html=1;fillColor=#f8cecc;strokeColor=#b85450;" vertex="1" parent="1">
          <mxGeometry x="589" y="655" width="160" height="60" as="geometry" />
        </mxCell>
        <mxCell id="uYKmUOFOkHPT1V7PyWkY-41" value="网关&lt;div&gt;（数据写出）&lt;/div&gt;" style="rounded=1;whiteSpace=wrap;html=1;fillColor=#fff2cc;strokeColor=#d6b656;" vertex="1" parent="1">
          <mxGeometry x="930" y="655" width="70" height="130" as="geometry" />
        </mxCell>
        <mxCell id="uYKmUOFOkHPT1V7PyWkY-42" value="" style="shape=singleArrow;direction=west;whiteSpace=wrap;html=1;" vertex="1" parent="1">
          <mxGeometry x="880" y="530" width="43" height="60" as="geometry" />
        </mxCell>
        <mxCell id="uYKmUOFOkHPT1V7PyWkY-44" value="&amp;nbsp;API 写服务" style="ellipse;shape=cloud;whiteSpace=wrap;html=1;" vertex="1" parent="1">
          <mxGeometry x="1050" y="760" width="120" height="80" as="geometry" />
        </mxCell>
        <mxCell id="uYKmUOFOkHPT1V7PyWkY-45" style="edgeStyle=orthogonalEdgeStyle;rounded=0;orthogonalLoop=1;jettySize=auto;html=1;exitX=1;exitY=0.5;exitDx=0;exitDy=0;entryX=0.07;entryY=0.4;entryDx=0;entryDy=0;entryPerimeter=0;curved=1;" edge="1" parent="1" source="uYKmUOFOkHPT1V7PyWkY-41" target="uYKmUOFOkHPT1V7PyWkY-44">
          <mxGeometry relative="1" as="geometry" />
        </mxCell>
        <mxCell id="uYKmUOFOkHPT1V7PyWkY-46" value="" style="shape=singleArrow;whiteSpace=wrap;html=1;" vertex="1" parent="1">
          <mxGeometry x="880" y="690" width="40" height="60" as="geometry" />
        </mxCell>
        <mxCell id="uYKmUOFOkHPT1V7PyWkY-47" value="领域逻辑处理节点 2&lt;div&gt;（数据获取，及数据写出）&lt;/div&gt;" style="rounded=1;whiteSpace=wrap;html=1;fillColor=#f8cecc;strokeColor=#b85450;" vertex="1" parent="1">
          <mxGeometry x="589" y="725" width="160" height="60" as="geometry" />
        </mxCell>
        <mxCell id="uYKmUOFOkHPT1V7PyWkY-48" value="本地数据写入&lt;div&gt;（数据获取，及数据写出）&lt;/div&gt;" style="rounded=1;whiteSpace=wrap;html=1;fillColor=#d5e8d4;strokeColor=#82b366;" vertex="1" parent="1">
          <mxGeometry x="589" y="866" width="160" height="60" as="geometry" />
        </mxCell>
        <mxCell id="uYKmUOFOkHPT1V7PyWkY-50" value="数据准备，构建上下文" style="rounded=1;whiteSpace=wrap;html=1;fillColor=#dae8fc;strokeColor=#6c8ebf;" vertex="1" parent="1">
          <mxGeometry x="589" y="577" width="160" height="60" as="geometry" />
        </mxCell>
        <mxCell id="uYKmUOFOkHPT1V7PyWkY-51" value="本地存储" style="shape=cylinder3;whiteSpace=wrap;html=1;boundedLbl=1;backgroundOutline=1;size=15;" vertex="1" parent="1">
          <mxGeometry x="880" y="820" width="60" height="80" as="geometry" />
        </mxCell>
        <mxCell id="uYKmUOFOkHPT1V7PyWkY-52" style="edgeStyle=orthogonalEdgeStyle;rounded=0;orthogonalLoop=1;jettySize=auto;html=1;exitX=1;exitY=0.5;exitDx=0;exitDy=0;entryX=0;entryY=0.5;entryDx=0;entryDy=0;entryPerimeter=0;curved=1;" edge="1" parent="1" source="uYKmUOFOkHPT1V7PyWkY-48" target="uYKmUOFOkHPT1V7PyWkY-51">
          <mxGeometry relative="1" as="geometry" />
        </mxCell>
        <mxCell id="uYKmUOFOkHPT1V7PyWkY-53" value="本地数据统一写出" style="edgeLabel;html=1;align=center;verticalAlign=middle;resizable=0;points=[];" vertex="1" connectable="0" parent="uYKmUOFOkHPT1V7PyWkY-52">
          <mxGeometry x="-0.0963" y="-6" relative="1" as="geometry">
            <mxPoint as="offset" />
          </mxGeometry>
        </mxCell>
        <mxCell id="uYKmUOFOkHPT1V7PyWkY-54" value="业务广播，异步消息发送，&lt;div&gt;通知&lt;/div&gt;" style="rounded=1;whiteSpace=wrap;html=1;fillColor=#d5e8d4;strokeColor=#82b366;" vertex="1" parent="1">
          <mxGeometry x="589" y="797" width="160" height="60" as="geometry" />
        </mxCell>
        <mxCell id="uYKmUOFOkHPT1V7PyWkY-58" style="edgeStyle=orthogonalEdgeStyle;rounded=0;orthogonalLoop=1;jettySize=auto;html=1;exitX=0;exitY=0.5;exitDx=0;exitDy=0;entryX=1;entryY=0.25;entryDx=0;entryDy=0;curved=1;" edge="1" parent="1" source="uYKmUOFOkHPT1V7PyWkY-55" target="uYKmUOFOkHPT1V7PyWkY-32">
          <mxGeometry relative="1" as="geometry" />
        </mxCell>
        <mxCell id="uYKmUOFOkHPT1V7PyWkY-55" value="" style="ellipse;whiteSpace=wrap;html=1;" vertex="1" parent="1">
          <mxGeometry x="1070" y="520" width="160" height="120" as="geometry" />
        </mxCell>
        <mxCell id="uYKmUOFOkHPT1V7PyWkY-56" value="本地存储" style="shape=cylinder3;whiteSpace=wrap;html=1;boundedLbl=1;backgroundOutline=1;size=15;" vertex="1" parent="1">
          <mxGeometry x="1150" y="490" width="60" height="80" as="geometry" />
        </mxCell>
        <mxCell id="uYKmUOFOkHPT1V7PyWkY-57" value="缓存" style="shape=hexagon;perimeter=hexagonPerimeter2;whiteSpace=wrap;html=1;fixedSize=1;" vertex="1" parent="1">
          <mxGeometry x="1100" y="580" width="80" height="50" as="geometry" />
        </mxCell>
        <mxCell id="uYKmUOFOkHPT1V7PyWkY-59" value="通过 API获取任务派发人员信息" style="rounded=1;whiteSpace=wrap;html=1;fillColor=#dae8fc;strokeColor=#6c8ebf;" vertex="1" parent="1">
          <mxGeometry x="250" y="580" width="180" height="30" as="geometry" />
        </mxCell>
        <mxCell id="uYKmUOFOkHPT1V7PyWkY-60" value="通过 API获取任务做单人员信息" style="rounded=1;whiteSpace=wrap;html=1;fillColor=#dae8fc;strokeColor=#6c8ebf;" vertex="1" parent="1">
          <mxGeometry x="250" y="655" width="180" height="30" as="geometry" />
        </mxCell>
        <mxCell id="uYKmUOFOkHPT1V7PyWkY-61" value="选择用前端人员信息 还是 接口中获取信息" style="rounded=1;whiteSpace=wrap;html=1;fillColor=#f8cecc;strokeColor=#b85450;" vertex="1" parent="1">
          <mxGeometry x="250" y="690" width="180" height="30" as="geometry" />
        </mxCell>
        <mxCell id="uYKmUOFOkHPT1V7PyWkY-70" value="&lt;font style=&quot;font-weight: normal; font-size: 16px;&quot;&gt;数据准备，数据获取，逻辑处理，&lt;/font&gt;&lt;div style=&quot;font-size: 16px;&quot;&gt;&lt;font style=&quot;font-weight: normal; font-size: 16px;&quot;&gt;数据写入逻辑交织在一起&lt;/font&gt;&lt;/div&gt;&lt;div style=&quot;font-size: 16px;&quot;&gt;&lt;font style=&quot;font-weight: normal; font-size: 16px;&quot;&gt;一段时间后，随着业务的变化，整理逻辑面目全非&lt;/font&gt;&lt;/div&gt;&lt;div style=&quot;font-size: 16px;&quot;&gt;&lt;font style=&quot;font-weight: normal; font-size: 16px;&quot;&gt;遇到线上问题，排查难度大，伤害业务&lt;/font&gt;&lt;/div&gt;" style="text;strokeColor=none;fillColor=none;html=1;fontSize=24;fontStyle=1;verticalAlign=middle;align=left;" vertex="1" parent="1">
          <mxGeometry x="130" y="950" width="100" height="40" as="geometry" />
        </mxCell>
      </root>
    </mxGraphModel>
  </diagram>
</mxfile>
